<svg width="15" height="15" viewBox="0 0 15 15" fill="none" xmlns="http://www.w3.org/2000/svg">
<path d="M14.684 7.72691L7.25 0.29291C7.15736 0.19976 7.04716 0.125909 6.92579 0.0756318C6.80442 0.0253544 6.67428 -0.000350903 6.54291 3.61767e-06H1.5C1.10231 0.000458517 0.721048 0.15864 0.439842 0.439846C0.158636 0.721052 0.000454899 1.10232 0 1.5V6.53369C0.000218778 6.67024 0.0282984 6.8053 0.0825205 6.93061C0.136743 7.05593 0.215966 7.16886 0.315344 7.2625L8.2235 14.6914C8.36206 14.8224 8.54562 14.8952 8.73631 14.8948C8.74563 14.8948 8.755 14.8947 8.76444 14.8943C8.86358 14.891 8.96107 14.8679 9.05117 14.8264C9.14128 14.7849 9.22218 14.7258 9.28913 14.6526L14.7057 8.76497C14.8371 8.62277 14.9082 8.43515 14.9042 8.24157C14.9002 8.04798 14.8212 7.8635 14.684 7.72691ZM8.72409 13.7897L1 6.53369V1.5C1.00016 1.36744 1.05289 1.24036 1.14662 1.14662C1.24035 1.05289 1.36744 1.00016 1.5 1H6.54291L13.8073 8.26444L8.72409 13.7897Z" fill="#FF7062"/>
<path d="M4.125 2.5C3.80361 2.5 3.48943 2.5953 3.2222 2.77386C2.95497 2.95242 2.74669 3.20621 2.6237 3.50314C2.5007 3.80007 2.46852 4.1268 2.53122 4.44202C2.59393 4.75724 2.74869 5.04679 2.97595 5.27405C3.20321 5.50131 3.49276 5.65608 3.80798 5.71878C4.1232 5.78148 4.44993 5.7493 4.74686 5.6263C5.04379 5.50331 5.29758 5.29503 5.47614 5.0278C5.6547 4.76057 5.75 4.44639 5.75 4.125C5.74951 3.69417 5.57815 3.28113 5.27351 2.97649C4.96887 2.67185 4.55583 2.50049 4.125 2.5ZM4.125 4.75C4.00139 4.75 3.88055 4.71334 3.77777 4.64467C3.67499 4.57599 3.59488 4.47838 3.54758 4.36418C3.50027 4.24997 3.48789 4.12431 3.51201 4.00307C3.53613 3.88183 3.59565 3.77047 3.68306 3.68306C3.77047 3.59565 3.88183 3.53612 4.00307 3.51201C4.12431 3.48789 4.24997 3.50027 4.36418 3.54758C4.47838 3.59488 4.57599 3.67499 4.64467 3.77777C4.71335 3.88055 4.75 4.00139 4.75 4.125C4.74981 4.2907 4.6839 4.44956 4.56673 4.56673C4.44956 4.6839 4.2907 4.74981 4.125 4.75V4.75Z" fill="#FF7062"/>
</svg>
