<svg width="20" height="15" viewBox="0 0 20 15" fill="none" xmlns="http://www.w3.org/2000/svg">
<path d="M16 3H14V2C14 1.46957 13.7893 0.960859 13.4142 0.585786C13.0391 0.210714 12.5304 0 12 0H2C1.46957 0 0.960859 0.210714 0.585786 0.585786C0.210714 0.960859 0 1.46957 0 2V12H2C2 12.394 2.0776 12.7841 2.22836 13.1481C2.37913 13.512 2.6001 13.8427 2.87868 14.1213C3.15726 14.3999 3.48797 14.6209 3.85195 14.7716C4.21593 14.9224 4.60603 15 5 15C5.39397 15 5.78407 14.9224 6.14805 14.7716C6.51203 14.6209 6.84274 14.3999 7.12132 14.1213C7.3999 13.8427 7.62087 13.512 7.77164 13.1481C7.9224 12.7841 8 12.394 8 12H12C12 12.7956 12.3161 13.5587 12.8787 14.1213C13.4413 14.6839 14.2044 15 15 15C15.7956 15 16.5587 14.6839 17.1213 14.1213C17.6839 13.5587 18 12.7956 18 12H20V7L16 3ZM5 13.5C4.80295 13.4999 4.60785 13.4611 4.42582 13.3856C4.2438 13.3101 4.07842 13.1995 3.93913 13.0602C3.79984 12.9208 3.68937 12.7553 3.61403 12.5733C3.53868 12.3912 3.49993 12.196 3.5 11.999C3.50007 11.802 3.53894 11.6068 3.61441 11.4248C3.68988 11.2428 3.80046 11.0774 3.93984 10.9381C4.07922 10.7988 4.24467 10.6884 4.42675 10.613C4.60882 10.5377 4.80395 10.4989 5.001 10.499C5.39896 10.4991 5.78056 10.6573 6.06187 10.9388C6.34317 11.2203 6.50113 11.602 6.501 12C6.50087 12.398 6.34265 12.7796 6.06116 13.0609C5.77967 13.3422 5.39796 13.5001 5 13.5V13.5ZM2 9V2H12V9H2ZM15 13.5C14.803 13.4999 14.6078 13.4611 14.4258 13.3856C14.2438 13.3101 14.0784 13.1995 13.9391 13.0602C13.7998 12.9208 13.6894 12.7553 13.614 12.5733C13.5387 12.3912 13.4999 12.196 13.5 11.999C13.5001 11.802 13.5389 11.6068 13.6144 11.4248C13.6899 11.2428 13.8005 11.0774 13.9398 10.9381C14.0792 10.7988 14.2447 10.6884 14.4267 10.613C14.6088 10.5377 14.804 10.4989 15.001 10.499C15.399 10.4991 15.7806 10.6573 16.0619 10.9388C16.3432 11.2203 16.5011 11.602 16.501 12C16.5009 12.398 16.3427 12.7796 16.0612 13.0609C15.7797 13.3422 15.398 13.5001 15 13.5V13.5Z" fill="#FF7062"/>
</svg>
